<svg width="159" height="210" viewBox="0 0 159 210" fill="none" xmlns="http://www.w3.org/2000/svg">
<g filter="url(#filter0_d_0_70)">
<rect x="11" y="10" width="121" height="172" rx="33.8647" fill="#353535"/>
</g>
<mask id="path-2-outside-1_0_70" maskUnits="userSpaceOnUse" x="30.3984" y="61.3867" width="80" height="69" fill="black">
<rect fill="white" x="30.3984" y="61.3867" width="80" height="69"/>
<path fill-rule="evenodd" clip-rule="evenodd" d="M69.9453 69.5131C72.7805 66.6779 77.3772 66.6779 80.2125 69.5131L100.792 90.0931C100.927 90.2279 101.056 90.3667 101.178 90.5091C102.733 91.8406 103.718 93.8183 103.718 96.0262C103.718 97.2013 103.439 98.3111 102.944 99.293C102.591 100.104 102.083 100.864 101.419 101.527L80.8394 122.107C78.0042 124.942 73.4074 124.942 70.5722 122.107C67.737 119.272 67.737 114.675 70.5722 111.84L79.1258 103.286H43.6584C39.6488 103.286 36.3984 100.036 36.3984 96.0262C36.3984 92.0167 39.6488 88.7662 43.6584 88.7662H78.9312L69.9453 79.7803C67.1101 76.9451 67.1101 72.3483 69.9453 69.5131Z"/>
</mask>
<path fill-rule="evenodd" clip-rule="evenodd" d="M69.9453 69.5131C72.7805 66.6779 77.3772 66.6779 80.2125 69.5131L100.792 90.0931C100.927 90.2279 101.056 90.3667 101.178 90.5091C102.733 91.8406 103.718 93.8183 103.718 96.0262C103.718 97.2013 103.439 98.3111 102.944 99.293C102.591 100.104 102.083 100.864 101.419 101.527L80.8394 122.107C78.0042 124.942 73.4074 124.942 70.5722 122.107C67.737 119.272 67.737 114.675 70.5722 111.84L79.1258 103.286H43.6584C39.6488 103.286 36.3984 100.036 36.3984 96.0262C36.3984 92.0167 39.6488 88.7662 43.6584 88.7662H78.9312L69.9453 79.7803C67.1101 76.9451 67.1101 72.3483 69.9453 69.5131Z" fill="white"/>
<path d="M80.2125 69.5131L84.4551 65.2705V65.2705L80.2125 69.5131ZM69.9453 69.5131L74.1879 73.7558V73.7558L69.9453 69.5131ZM100.792 90.0931L96.5498 94.3357L96.5498 94.3358L100.792 90.0931ZM101.178 90.5091L96.6211 94.4127L96.923 94.7651L97.2754 95.0668L101.178 90.5091ZM102.944 99.293L97.5873 96.5896L97.5103 96.7421L97.4421 96.8988L102.944 99.293ZM101.419 101.527L97.1767 97.2844L101.419 101.527ZM80.8394 122.107L85.082 126.35L80.8394 122.107ZM79.1258 103.286L83.3684 107.529L93.6111 97.2862H79.1258V103.286ZM78.9312 88.7662V94.7662H93.4165L83.1738 84.5236L78.9312 88.7662ZM69.9453 79.7803L74.1879 75.5377L69.9453 79.7803ZM84.4551 65.2705C79.2767 60.0921 70.881 60.0921 65.7026 65.2705L74.1879 73.7558C74.68 73.2637 75.4778 73.2637 75.9698 73.7558L84.4551 65.2705ZM105.035 85.8504L84.4551 65.2705L75.9698 73.7558L96.5498 94.3357L105.035 85.8504ZM105.734 86.6054C105.512 86.3462 105.279 86.0943 105.035 85.8504L96.5498 94.3358C96.5755 94.3615 96.5992 94.3871 96.6211 94.4127L105.734 86.6054ZM109.718 96.0262C109.718 91.9922 107.91 88.3741 105.08 85.9513L97.2754 95.0668C97.5561 95.3071 97.7185 95.6445 97.7185 96.0262H109.718ZM108.3 101.996C109.209 100.195 109.718 98.1616 109.718 96.0262H97.7185C97.7185 96.2409 97.6694 96.4268 97.5873 96.5896L108.3 101.996ZM105.662 105.77C106.866 104.566 107.797 103.177 108.445 101.687L97.4421 96.8988C97.3844 97.0315 97.2996 97.1615 97.1767 97.2844L105.662 105.77ZM85.082 126.35L105.662 105.77L97.1767 97.2844L76.5968 117.864L85.082 126.35ZM66.3296 126.35C71.5079 131.528 79.9037 131.528 85.082 126.35L76.5968 117.864C76.1047 118.356 75.3069 118.356 74.8149 117.864L66.3296 126.35ZM66.3296 107.597C61.1512 112.776 61.1512 121.171 66.3296 126.35L74.8149 117.864C74.3228 117.372 74.3228 116.575 74.8148 116.082L66.3296 107.597ZM74.8832 99.0436L66.3296 107.597L74.8148 116.082L83.3684 107.529L74.8832 99.0436ZM43.6584 109.286H79.1258V97.2862H43.6584V109.286ZM30.3984 96.0262C30.3984 103.35 36.3351 109.286 43.6584 109.286V97.2862C42.9626 97.2862 42.3984 96.7221 42.3984 96.0262H30.3984ZM43.6584 82.7662C36.3351 82.7662 30.3984 88.703 30.3984 96.0262H42.3984C42.3984 95.3304 42.9626 94.7662 43.6584 94.7662V82.7662ZM78.9312 82.7662H43.6584V94.7662H78.9312V82.7662ZM65.7026 84.0229L74.6886 93.0089L83.1738 84.5236L74.1879 75.5377L65.7026 84.0229ZM65.7026 65.2705C60.5243 70.4488 60.5243 78.8446 65.7026 84.0229L74.1879 75.5377C73.6958 75.0456 73.6958 74.2478 74.1879 73.7558L65.7026 65.2705Z" fill="#353535" mask="url(#path-2-outside-1_0_70)"/>
<defs>
<filter id="filter0_d_0_70" x="0" y="0" width="159" height="210" filterUnits="userSpaceOnUse" color-interpolation-filters="sRGB">
<feFlood flood-opacity="0" result="BackgroundImageFix"/>
<feColorMatrix in="SourceAlpha" type="matrix" values="0 0 0 0 0 0 0 0 0 0 0 0 0 0 0 0 0 0 127 0" result="hardAlpha"/>
<feOffset dx="8" dy="9"/>
<feGaussianBlur stdDeviation="9.5"/>
<feComposite in2="hardAlpha" operator="out"/>
<feColorMatrix type="matrix" values="0 0 0 0 0 0 0 0 0 0 0 0 0 0 0 0 0 0 0.65 0"/>
<feBlend mode="normal" in2="BackgroundImageFix" result="effect1_dropShadow_0_70"/>
<feBlend mode="normal" in="SourceGraphic" in2="effect1_dropShadow_0_70" result="shape"/>
</filter>
</defs>
</svg>
